<svg xmlns="http://www.w3.org/2000/svg" viewBox="0 0 220 180.71">
  <path fill="#FF5300" d="M113.8,0h-7.6C47.55,0,0,47.55,0,106.2v74.51h23.36l20.18-55.33h18.7l20.18,55.33h22.71v-55.35h22.49l23.25,46.88,23.38-46.88h22.37v55.35h23.37v-74.51C220,47.55,172.45,0,113.8,0Z"/>
  <polygon fill="#FF5300" points="42.16 180.71 60.6 180.71 63.38 180.71 52.9 149.01 42.16 180.71"/>
  <polygon fill="#FF5300" points="125.86 161.38 125.86 180.71 128.48 180.71 135.5 180.71 125.86 161.38"/>
  <polygon fill="#FF5300" points="175.9 180.71 175.9 161.38 166.26 180.71 175.9 180.71"/>
</svg>
